REM DIRINDEX 1\2,1\4,1\5,1\6,1\7,1\3\8,1\3\9,1\3\10
REM DIRNAME cjc113,folder01,folder02,folder03,folder04,folder05,folder06,folder07,folder08,folder09
TITLE ""
FILE "DB4500_5th_5C_08.mp3" MP3
  TRACK 01 AUDIO
    TITLE "0:"
    INDEX 01 00:00:00
  TRACK 02 AUDIO
    TITLE "8:cjc113_3672"
    INDEX 01 00:00:01
  TRACK 03 AUDIO
    TITLE "0:"
    INDEX 01 00:01:24
  TRACK 04 AUDIO
    TITLE "9:cjc113_3673"
    INDEX 01 00:01:42
  TRACK 05 AUDIO
    TITLE "0:"
    INDEX 01 00:03:08
  TRACK 06 AUDIO
    TITLE "10:cjc113_3674"
    INDEX 01 00:03:25
  TRACK 07 AUDIO
    TITLE "0:"
    INDEX 01 00:06:41
  TRACK 08 AUDIO
    TITLE "8:cjc113_3675"
    INDEX 01 00:07:07
  TRACK 09 AUDIO
    TITLE "0:"
    INDEX 01 00:08:30
  TRACK 10 AUDIO
    TITLE "9:cjc113_3676"
    INDEX 01 00:08:44
  TRACK 11 AUDIO
    TITLE "0:"
    INDEX 01 00:11:01
  TRACK 12 AUDIO
    TITLE "10:cjc113_3677"
    INDEX 01 00:11:19
  TRACK 13 AUDIO
    TITLE "0:"
    INDEX 01 00:13:71
  TRACK 14 AUDIO
    TITLE "8:cjc113_3678"
    INDEX 01 00:14:41
  TRACK 15 AUDIO
    TITLE "0:"
    INDEX 01 00:15:56
  TRACK 16 AUDIO
    TITLE "9:cjc113_3679"
    INDEX 01 00:15:74
  TRACK 17 AUDIO
    TITLE "0:"
    INDEX 01 00:17:31
  TRACK 18 AUDIO
    TITLE "10:cjc113_3680"
    INDEX 01 00:17:47
  TRACK 19 AUDIO
    TITLE "0:"
    INDEX 01 00:20:63
  TRACK 20 AUDIO
    TITLE "8:cjc113_3681"
    INDEX 01 00:21:33
  TRACK 21 AUDIO
    TITLE "0:"
    INDEX 01 00:22:48
  TRACK 22 AUDIO
    TITLE "9:cjc113_3682"
    INDEX 01 00:22:64
  TRACK 23 AUDIO
    TITLE "0:"
    INDEX 01 00:24:27
  TRACK 24 AUDIO
    TITLE "10:cjc113_3683"
    INDEX 01 00:24:45
  TRACK 25 AUDIO
    TITLE "0:"
    INDEX 01 00:28:43
  TRACK 26 AUDIO
    TITLE "8:cjc113_3684"
    INDEX 01 00:29:11
  TRACK 27 AUDIO
    TITLE "0:"
    INDEX 01 00:30:26
  TRACK 28 AUDIO
    TITLE "9:cjc113_3685"
    INDEX 01 00:30:44
  TRACK 29 AUDIO
    TITLE "0:"
    INDEX 01 00:32:09
  TRACK 30 AUDIO
    TITLE "10:cjc113_3686"
    INDEX 01 00:32:25
  TRACK 31 AUDIO
    TITLE "0:"
    INDEX 01 00:35:08
  TRACK 32 AUDIO
    TITLE "8:cjc113_3687"
    INDEX 01 00:35:49
  TRACK 33 AUDIO
    TITLE "0:"
    INDEX 01 00:36:68
  TRACK 34 AUDIO
    TITLE "9:cjc113_3688"
    INDEX 01 00:37:12
  TRACK 35 AUDIO
    TITLE "0:"
    INDEX 01 00:39:09
  TRACK 36 AUDIO
    TITLE "10:cjc113_3689"
    INDEX 01 00:39:23
  TRACK 37 AUDIO
    TITLE "0:"
    INDEX 01 00:42:57
  TRACK 38 AUDIO
    TITLE "8:cjc113_3690"
    INDEX 01 00:43:27
  TRACK 39 AUDIO
    TITLE "0:"
    INDEX 01 00:44:34
  TRACK 40 AUDIO
    TITLE "9:cjc113_3691"
    INDEX 01 00:44:52
  TRACK 41 AUDIO
    TITLE "0:"
    INDEX 01 00:46:09
  TRACK 42 AUDIO
    TITLE "10:cjc113_3692"
    INDEX 01 00:46:25
  TRACK 43 AUDIO
    TITLE "0:"
    INDEX 01 00:49:47
  TRACK 44 AUDIO
    TITLE "8:cjc113_3693"
    INDEX 01 00:50:13
  TRACK 45 AUDIO
    TITLE "0:"
    INDEX 01 00:51:36
  TRACK 46 AUDIO
    TITLE "9:cjc113_3694"
    INDEX 01 00:51:54
  TRACK 47 AUDIO
    TITLE "0:"
    INDEX 01 00:53:17
  TRACK 48 AUDIO
    TITLE "10:cjc113_3695"
    INDEX 01 00:53:33
  TRACK 49 AUDIO
    TITLE "0:"
    INDEX 01 00:56:43
  TRACK 50 AUDIO
    TITLE "8:cjc113_3696"
    INDEX 01 00:57:13
  TRACK 51 AUDIO
    TITLE "0:"
    INDEX 01 00:58:34
  TRACK 52 AUDIO
    TITLE "9:cjc113_3697"
    INDEX 01 00:58:42
  TRACK 53 AUDIO
    TITLE "0:"
    INDEX 01 00:59:69
  TRACK 54 AUDIO
    TITLE "10:cjc113_3698"
    INDEX 01 01:00:06
  TRACK 55 AUDIO
    TITLE "0:"
    INDEX 01 01:03:27
  TRACK 56 AUDIO
    TITLE "8:cjc113_3699"
    INDEX 01 01:03:59
  TRACK 57 AUDIO
    TITLE "0:"
    INDEX 01 01:05:07
  TRACK 58 AUDIO
    TITLE "9:cjc113_3700"
    INDEX 01 01:05:17
  TRACK 59 AUDIO
    TITLE "0:"
    INDEX 01 01:06:43
  TRACK 60 AUDIO
    TITLE "10:cjc113_3701"
    INDEX 01 01:06:57
  TRACK 61 AUDIO
    TITLE "0:"
    INDEX 01 01:10:31
  TRACK 62 AUDIO
    TITLE "8:cjc113_3702"
    INDEX 01 01:10:61
  TRACK 63 AUDIO
    TITLE "0:"
    INDEX 01 01:12:09
  TRACK 64 AUDIO
    TITLE "9:cjc113_3703"
    INDEX 01 01:12:17
  TRACK 65 AUDIO
    TITLE "0:"
    INDEX 01 01:13:51
  TRACK 66 AUDIO
    TITLE "10:cjc113_3704"
    INDEX 01 01:13:61
  TRACK 67 AUDIO
    TITLE "0:"
    INDEX 01 01:17:53
  TRACK 68 AUDIO
    TITLE "8:cjc113_3705"
    INDEX 01 01:18:09
  TRACK 69 AUDIO
    TITLE "0:"
    INDEX 01 01:19:48
  TRACK 70 AUDIO
    TITLE "9:cjc113_3706"
    INDEX 01 01:19:54
  TRACK 71 AUDIO
    TITLE "0:"
    INDEX 01 01:20:65
  TRACK 72 AUDIO
    TITLE "10:cjc113_3707"
    INDEX 01 01:20:73
  TRACK 73 AUDIO
    TITLE "0:"
    INDEX 01 01:25:57
  TRACK 74 AUDIO
    TITLE "8:cjc113_3708"
    INDEX 01 01:26:11
  TRACK 75 AUDIO
    TITLE "0:"
    INDEX 01 01:27:44
  TRACK 76 AUDIO
    TITLE "9:cjc113_3709"
    INDEX 01 01:27:53
  TRACK 77 AUDIO
    TITLE "0:"
    INDEX 01 01:28:74
  TRACK 78 AUDIO
    TITLE "10:cjc113_3710"
    INDEX 01 01:29:07
  TRACK 79 AUDIO
    TITLE "0:"
    INDEX 01 01:32:70
